<svg xmlns="http://www.w3.org/2000/svg" width="718" height="127" viewBox="0 0 718 127"><path d="" stroke="none" fill="#107cc4" fill-rule="evenodd"></path><path d="M 33.250 1.761 C 30.363 2.602, 28 3.825, 28 4.479 C 28 5.134, 29.767 10.013, 31.928 15.322 L 35.855 24.975 32.336 26.645 C 25.843 29.726, 18.265 37.685, 14.424 45.457 C 11.492 51.389, 10.727 54.230, 10.272 60.865 L 9.714 69 6.107 69.015 C 0.187 69.040, -0.395 69.876, 1.040 76.290 C 2.835 84.309, 2.935 84.386, 8.473 82.011 C 11.119 80.878, 13.387 80.074, 13.514 80.225 C 13.642 80.376, 14.503 81.989, 15.429 83.810 C 21.506 95.754, 36.983 105, 50.901 105 C 57.805 105, 57.300 104.212, 59.073 117.750 C 60.008 124.895, 60.635 127, 61.826 127 C 63.249 127, 75.096 123.985, 75.817 123.439 C 75.991 123.307, 74.233 118.565, 71.910 112.900 L 67.687 102.600 69.448 101.550 C 76.785 97.177, 82.356 92.220, 85.903 86.907 C 90.868 79.473, 93 72.686, 93 64.318 L 93 58 97.250 57.985 C 103.891 57.961, 104.238 57.388, 102.114 49.954 C 100.125 42.988, 99.787 42.798, 93.908 45.341 L 90.315 46.895 86.408 40.791 C 79.176 29.495, 65.411 22, 51.895 22 C 48.653 22, 45.992 21.663, 45.982 21.250 C 45.972 20.837, 45.305 16.225, 44.500 11 C 43.695 5.775, 43.028 1.163, 43.018 0.750 C 42.991 -0.360, 39.181 0.034, 33.250 1.761 M 48.407 34.381 C 48.062 35.280, 48.065 37.534, 48.414 39.392 C 48.897 41.970, 48.668 42.913, 47.442 43.384 C 44.300 44.590, 43.197 43.949, 41.617 40 C 40.736 37.800, 39.675 36.002, 39.258 36.005 C 38.841 36.008, 36.257 37.709, 33.515 39.786 C 26.775 44.891, 22 53.952, 22 61.637 L 22 67.100 26.750 66.800 L 31.500 66.500 31.810 69.186 C 32.076 71.486, 31.530 72.133, 28.014 73.686 L 23.907 75.500 26.861 80.138 C 28.485 82.689, 31.843 86.172, 34.324 87.879 C 38.752 90.926, 48.057 94, 52.849 94 L 55.279 94 54.696 89.085 C 54.239 85.226, 54.442 84.044, 55.639 83.585 C 58.695 82.412, 59.814 83.078, 61.383 87 C 62.264 89.200, 63.370 91, 63.842 91 C 65.045 91, 72.061 85.750, 74.701 82.873 C 77.997 79.283, 81.088 71.550, 81.735 65.275 L 82.311 59.701 77.277 60.369 L 72.243 61.037 71.635 58.768 C 70.715 55.334, 70.718 55.330, 75 53.617 C 77.200 52.736, 79 51.765, 79 51.458 C 79 49.655, 75.560 44.835, 71.937 41.562 C 66.824 36.943, 61.198 34.356, 54.267 33.439 C 49.931 32.866, 48.927 33.027, 48.407 34.381 M 42.922 49.274 C 32.165 56.523, 32.165 70.477, 42.922 77.726 C 47.427 80.762, 55.858 80.869, 60.582 77.950 C 71.064 71.471, 71.064 55.529, 60.582 49.050 C 55.858 46.131, 47.427 46.238, 42.922 49.274 M 48.500 56.131 C 44.380 58.434, 42.861 62.868, 44.621 67.455 C 45.557 69.893, 50.602 72.138, 53.507 71.409 C 56.644 70.622, 60 66.492, 60 63.421 C 60 58.335, 52.763 53.747, 48.500 56.131 M 349.951 56.306 C 336.832 60.005, 328.117 71.198, 327.239 85.473 C 326.861 91.624, 327.102 92.936, 329.174 96 C 332.888 101.494, 337.142 103.195, 346 102.727 C 355.066 102.249, 359.880 100.023, 365.843 93.554 C 371.331 87.600, 374.118 81.116, 374.678 73 C 375.022 68.008, 374.705 65.704, 373.313 63.069 C 369.979 56.758, 359.307 53.668, 349.951 56.306 M 442.803 56.351 C 429.630 60.033, 420.995 72.287, 421.004 87.285 C 421.011 98.915, 426.658 103.606, 439.646 102.772 C 448.370 102.212, 454.828 98.805, 459.153 92.478 C 463.898 85.535, 463.715 85, 456.594 85 L 450.376 85 448.224 87.910 C 444.093 93.498, 436.700 94.045, 433.980 88.963 C 431.581 84.480, 436.786 71.321, 442.285 67.968 C 447.816 64.595, 454 65.950, 454 70.535 L 454 73 460.630 73 L 467.260 73 466.755 68.514 C 465.839 60.390, 461.615 56.580, 452.406 55.574 C 449.655 55.274, 445.437 55.615, 442.803 56.351 M 544.718 56.092 C 536.383 58.054, 529.305 64.162, 525.123 73 C 522.986 77.517, 522.519 79.960, 522.510 86.667 C 522.501 94.005, 522.754 95.105, 525 97.512 C 528.871 101.659, 532.349 103.001, 539.200 102.990 C 546.229 102.979, 553.925 100.014, 557.645 95.882 C 563.007 89.927, 565.451 82.719, 563.235 79.400 C 561.710 77.116, 557.924 76, 551.702 76 L 545.272 76 543.636 80.283 C 542.736 82.639, 542 84.889, 542 85.283 C 542 85.678, 543.837 86, 546.083 86 C 550.712 86, 550.895 87.243, 546.725 90.356 C 543.702 92.613, 538.840 92.942, 536.553 91.044 C 532.258 87.480, 536.860 72.104, 543.439 68.038 C 548.976 64.616, 555 65.917, 555 70.535 L 555 73 561.627 73 L 568.254 73 567.770 67.953 C 566.809 57.957, 557.387 53.108, 544.718 56.092 M 113.877 58.750 C 113.287 60.263, 109.741 69.825, 105.997 80 C 102.254 90.175, 98.875 99.287, 98.488 100.250 L 97.786 102 113.143 101.990 L 128.500 101.980 133.599 99.606 C 136.404 98.300, 139.712 95.808, 140.951 94.069 C 143.990 89.801, 144.734 83.769, 142.620 80.543 L 140.982 78.043 144.620 74.710 C 147.658 71.925, 148.337 70.545, 148.742 66.333 C 149.583 57.583, 146.197 56.031, 126.225 56.011 L 114.950 56 113.877 58.750 M 158.880 58.750 C 158.292 60.263, 156.090 66.225, 153.988 72 C 151.886 77.775, 148.562 86.888, 146.601 92.250 L 143.036 102 159.948 102 L 176.860 102 178.821 96.750 L 180.781 91.500 170.297 91.215 L 159.813 90.930 160.506 89.215 C 162.912 83.263, 172 57.767, 172 56.969 C 172 56.436, 169.289 56, 165.975 56 L 159.950 56 158.880 58.750 M 189.532 71.543 C 186.347 80.091, 183.697 88.788, 183.642 90.870 C 183.419 99.396, 189.845 103.469, 202.476 102.806 C 211.655 102.324, 216.183 100.249, 220.550 94.523 C 222.438 92.048, 236 58.567, 236 56.382 C 236 56.172, 233.148 56, 229.661 56 L 223.322 56 217.562 71.463 C 214.137 80.656, 210.817 87.910, 209.376 89.351 C 204.824 93.903, 197 93.386, 197 88.534 C 197 87.151, 199.475 79.425, 202.500 71.366 C 205.525 63.307, 208 56.552, 208 56.356 C 208 56.160, 205.148 56, 201.661 56 L 195.322 56 189.532 71.543 M 234.174 78.445 C 229.678 90.790, 226 101.140, 226 101.445 C 226 101.750, 234.265 102, 244.366 102 L 262.732 102 264.729 96.750 L 266.725 91.500 254.863 91.219 C 248.338 91.065, 242.996 90.615, 242.992 90.219 C 242.987 89.824, 244.836 84.438, 247.101 78.250 L 251.218 67 263.374 67 L 275.531 67 277.265 62.116 C 278.219 59.429, 279 56.954, 279 56.616 C 279 56.277, 270.753 56, 260.674 56 L 242.348 56 234.174 78.445 M 300.554 56.912 C 299.982 57.838, 284 101.042, 284 101.663 C 284 101.848, 286.861 102, 290.358 102 L 296.717 102 303.108 84.502 L 309.500 67.003 320.301 67.002 L 331.102 67 332.431 63.750 C 333.162 61.962, 334.070 59.487, 334.448 58.250 L 335.135 56 318.126 56 C 308.772 56, 300.864 56.411, 300.554 56.912 M 386.611 56.820 C 386.332 57.271, 382.741 66.834, 378.631 78.070 C 374.521 89.307, 370.849 99.287, 370.472 100.250 C 369.862 101.807, 370.500 102, 376.272 102 L 382.758 102 388.538 86.250 C 391.717 77.588, 394.685 69.487, 395.134 68.250 C 395.982 65.914, 399.724 65.283, 404.750 66.630 C 410.277 68.112, 404.688 75, 397.959 75 L 394.188 75 392.594 79.678 C 391.717 82.251, 391 84.501, 391 84.678 C 391 84.855, 392.520 85, 394.378 85 C 399.886 85, 400.710 87.030, 398.156 94.303 C 396.959 97.711, 395.984 100.838, 395.990 101.250 C 395.995 101.662, 398.893 102, 402.428 102 L 408.856 102 410.928 96.462 C 413.135 90.565, 413.612 84.011, 412.047 81.088 C 411.291 79.675, 411.717 78.846, 414.107 77.079 C 418.297 73.981, 420.992 69.174, 420.996 64.789 C 421.001 60.243, 418.364 57.488, 413.192 56.632 C 407.714 55.727, 387.197 55.872, 386.611 56.820 M 477.536 56.941 C 477.217 57.459, 473.627 67.021, 469.559 78.191 C 465.492 89.361, 461.854 99.287, 461.475 100.250 L 460.786 102 479.380 102 L 497.973 102 499.367 98.663 C 500.134 96.827, 501.071 94.352, 501.448 93.163 L 502.135 91 489.960 91 C 480.633 91, 477.897 90.708, 478.263 89.750 C 478.525 89.063, 480.485 83.663, 482.620 77.751 L 486.500 67.003 498.614 67.001 L 510.728 67 512.364 62.717 C 513.264 60.361, 514 57.886, 514 57.217 C 514 55.718, 478.459 55.449, 477.536 56.941 M 580.103 58.250 C 579.637 59.487, 577.211 66.125, 574.713 73 C 572.215 79.875, 568.794 89.213, 567.111 93.750 L 564.050 102 582.790 102 L 601.531 102 603.265 97.116 C 604.219 94.429, 605 91.968, 605 91.647 C 605 91.325, 599.638 90.935, 593.085 90.781 L 581.171 90.500 585.410 79 L 589.649 67.500 601.928 67 L 614.206 66.500 615.987 61.801 C 616.967 59.216, 617.520 56.854, 617.217 56.551 C 616.915 56.248, 608.631 56, 598.809 56 L 580.950 56 580.103 58.250 M 620.856 77.750 C 611.991 89.713, 604.292 100.063, 603.747 100.750 C 602.973 101.725, 604.271 102, 609.646 102 L 616.537 102 621.938 94 C 624.909 89.600, 627.494 86, 627.683 86 C 627.872 86, 627.346 87.630, 626.513 89.622 C 625.681 91.614, 625 93.414, 625 93.622 C 625 93.830, 627.700 94, 631 94 L 637 94 637 98 L 637 102 643.500 102 L 650 102 649.996 93.250 C 649.994 88.438, 649.699 78.088, 649.341 70.250 L 648.689 56 642.832 56 L 636.975 56 620.856 77.750 M 667.161 58.139 C 666.251 60.596, 659.323 79.455, 654.061 93.795 L 651.017 102.091 657.617 101.795 L 664.217 101.500 666.438 95.500 C 667.660 92.200, 670.585 84.213, 672.939 77.750 L 677.218 66 681.359 66.015 C 686.779 66.035, 688.433 67.139, 687.659 70.221 C 686.963 72.997, 683.299 75, 678.917 75 C 676.320 75, 675.672 75.600, 673.964 79.583 C 672.884 82.104, 672 84.354, 672 84.583 C 672 84.812, 673.313 85, 674.918 85 C 681.605 85, 682.140 86.375, 679 95.500 C 677.900 98.697, 677 101.488, 677 101.702 C 677 101.916, 679.972 101.958, 683.604 101.796 L 690.208 101.500 692.125 96.500 C 694.257 90.940, 694.768 84.196, 693.262 81.503 C 692.461 80.073, 693.192 78.858, 697.138 75.054 L 702 70.368 702 65.207 C 702 57.423, 700.237 56.611, 682.325 56.148 L 668.035 55.778 667.161 58.139 M 708 58 C 702.609 63.391, 709.240 71.693, 715.606 67.523 C 718.848 65.398, 718.945 59.775, 715.777 57.557 C 712.786 55.462, 710.403 55.597, 708 58 M 123.483 67.250 C 123.234 67.938, 121.223 73.401, 119.015 79.391 C 116.807 85.381, 115 90.669, 115 91.141 C 115 91.614, 117.600 92, 120.777 92 C 127.874 92, 131.256 90.029, 130.807 86.153 L 130.500 83.500 125.250 83.198 C 122.362 83.031, 120 82.455, 120 81.916 C 120 81.377, 120.652 79.375, 121.449 77.468 L 122.898 74 127.226 74 C 134.581 74, 138.940 69.068, 133.435 66.975 C 129.823 65.602, 124.024 65.762, 123.483 67.250 M 349.389 67.905 C 344.037 71.168, 339.982 78.735, 340.015 85.399 C 340.035 89.349, 340.873 90.621, 344.318 91.931 C 351.810 94.779, 362 83.599, 362 72.529 C 362 66.385, 355.681 64.068, 349.389 67.905 M 633.250 77.695 C 630.913 81.102, 629 84.140, 629 84.445 C 629 84.750, 630.814 85, 633.031 85 C 637.777 85, 638.226 84.237, 637.807 76.881 L 637.500 71.500 633.250 77.695 M 249.060 77.750 C 248.321 79.813, 247.502 82.079, 247.238 82.786 C 246.862 83.794, 248.999 84.011, 257.100 83.786 L 267.442 83.500 269.203 78.750 L 270.965 74 260.683 74 L 250.402 74 249.060 77.750 M 484.449 77.468 C 481.767 83.888, 481.912 84, 492.906 84 L 502.812 84 504.406 79.322 C 505.283 76.749, 506 74.499, 506 74.322 C 506 74.145, 501.477 74, 495.949 74 L 485.898 74 484.449 77.468 M 587.983 76.544 C 587.451 77.943, 586.739 80.193, 586.400 81.544 L 585.783 84 595.783 84 L 605.783 84 607.391 79.980 C 608.276 77.769, 609 75.519, 609 74.980 C 609 74.405, 604.854 74, 598.975 74 L 588.950 74 587.983 76.544 M 306.594 79.678 C 305.717 82.251, 305 84.501, 305 84.678 C 305 84.855, 308.783 85, 313.406 85 L 321.812 85 323.406 80.322 C 324.283 77.749, 325 75.499, 325 75.322 C 325 75.145, 321.217 75, 316.594 75 L 308.188 75 306.594 79.678" stroke="none" fill="#0c7cc4" fill-rule="evenodd"></path></svg>